<svg xmlns="http://www.w3.org/2000/svg" viewBox="0 0 200 200" width="200" height="200">
  <circle cx="100" cy="100" r="90" fill="#2d3142" />
  
  <circle cx="45" cy="45" r="1" fill="#ffffff" opacity="0.8" />
  <circle cx="155" cy="50" r="1.5" fill="#ffffff" opacity="0.7" />
  <circle cx="95" cy="35" r="1" fill="#ffffff" opacity="0.5" />
  <circle cx="165" cy="110" r="2" fill="#ffffff" opacity="0.4" />

  <path d="M50,110 C50,140 110,140 110,110 Z" fill="#4a5568" />
  <path d="M110,115 C120,115 125,122 110,130" fill="none" stroke="#4a5568" stroke-width="4" stroke-linecap="round" />

  <path d="M65,115 C60,95 75,80 75,65 C70,60 60,62 55,55 C68,53 78,63 82,75 C85,90 75,115 75,115 Z" fill="#ff9f1c" />
  <path d="M80,115 C80,100 90,90 92,78 C98,85 92,98 88,115 Z" fill="#ffb703" opacity="0.8" />

  <path d="M125,135 C115,115 130,95 135,80 C140,95 155,115 145,135 Z" fill="#bc84ee" />
  <path d="M130,135 C125,123 135,110 135,100 C135,110 145,123 140,135 Z" fill="#dcfd8b" />
  
  <rect x="120" y="135" width="25" height="6" rx="2" fill="#1a202c" />

  <ellipse cx="100" cy="165" rx="70" ry="10" fill="#1d202d" />
</svg>
